<mxfile host="Electron" modified="2023-08-07T18:26:02.008Z" agent="Mozilla/5.0 (Windows NT 10.0; Win64; x64) AppleWebKit/537.36 (KHTML, like Gecko) draw.io/21.6.5 Chrome/114.0.5735.243 Electron/25.3.1 Safari/537.36" etag="P2RLNa08tuZ3v2FtFoAG" version="21.6.5" type="device">
  <diagram name="Página-1" id="yJ6WDDQ8qH0IbtRZHyPi">
    <mxGraphModel dx="1050" dy="621" grid="1" gridSize="10" guides="1" tooltips="1" connect="1" arrows="1" fold="1" page="1" pageScale="1" pageWidth="827" pageHeight="1169" math="0" shadow="0">
      <root>
        <mxCell id="0" />
        <mxCell id="1" parent="0" />
        <mxCell id="ik4w4f4R3jZXHW3xL0bT-1" value="AUTHENTICATION" style="swimlane;startSize=20;horizontal=1;containerType=tree;newEdgeStyle={&quot;edgeStyle&quot;:&quot;elbowEdgeStyle&quot;,&quot;startArrow&quot;:&quot;none&quot;,&quot;endArrow&quot;:&quot;none&quot;};" vertex="1" parent="1">
          <mxGeometry x="74" y="60" width="680" height="620" as="geometry" />
        </mxCell>
        <mxCell id="ik4w4f4R3jZXHW3xL0bT-16" style="edgeStyle=elbowEdgeStyle;rounded=0;orthogonalLoop=1;jettySize=auto;html=1;startArrow=none;endArrow=none;entryX=0.5;entryY=0;entryDx=0;entryDy=0;" edge="1" parent="ik4w4f4R3jZXHW3xL0bT-1" source="ik4w4f4R3jZXHW3xL0bT-4" target="ik4w4f4R3jZXHW3xL0bT-15">
          <mxGeometry relative="1" as="geometry" />
        </mxCell>
        <UserObject label="HTTP://APP" treeRoot="1" id="ik4w4f4R3jZXHW3xL0bT-4">
          <mxCell style="whiteSpace=wrap;html=1;align=center;treeFolding=1;treeMoving=1;newEdgeStyle={&quot;edgeStyle&quot;:&quot;elbowEdgeStyle&quot;,&quot;startArrow&quot;:&quot;none&quot;,&quot;endArrow&quot;:&quot;none&quot;};" vertex="1" parent="ik4w4f4R3jZXHW3xL0bT-1">
            <mxGeometry x="274" y="70" width="120" height="60" as="geometry" />
          </mxCell>
        </UserObject>
        <mxCell id="ik4w4f4R3jZXHW3xL0bT-21" style="edgeStyle=orthogonalEdgeStyle;rounded=0;orthogonalLoop=1;jettySize=auto;html=1;entryX=0.5;entryY=0;entryDx=0;entryDy=0;" edge="1" parent="ik4w4f4R3jZXHW3xL0bT-1" source="ik4w4f4R3jZXHW3xL0bT-15" target="ik4w4f4R3jZXHW3xL0bT-20">
          <mxGeometry relative="1" as="geometry" />
        </mxCell>
        <mxCell id="ik4w4f4R3jZXHW3xL0bT-22" value="Usuário não logado" style="edgeLabel;html=1;align=center;verticalAlign=middle;resizable=0;points=[];" vertex="1" connectable="0" parent="ik4w4f4R3jZXHW3xL0bT-21">
          <mxGeometry x="-0.2279" y="-3" relative="1" as="geometry">
            <mxPoint as="offset" />
          </mxGeometry>
        </mxCell>
        <mxCell id="ik4w4f4R3jZXHW3xL0bT-23" style="edgeStyle=orthogonalEdgeStyle;rounded=0;orthogonalLoop=1;jettySize=auto;html=1;entryX=0.5;entryY=0;entryDx=0;entryDy=0;" edge="1" parent="ik4w4f4R3jZXHW3xL0bT-1" source="ik4w4f4R3jZXHW3xL0bT-15" target="ik4w4f4R3jZXHW3xL0bT-31">
          <mxGeometry relative="1" as="geometry">
            <mxPoint x="536" y="225" as="targetPoint" />
          </mxGeometry>
        </mxCell>
        <mxCell id="ik4w4f4R3jZXHW3xL0bT-32" value="Usuário Logado" style="edgeLabel;html=1;align=center;verticalAlign=middle;resizable=0;points=[];" vertex="1" connectable="0" parent="ik4w4f4R3jZXHW3xL0bT-23">
          <mxGeometry x="-0.3941" y="-1" relative="1" as="geometry">
            <mxPoint as="offset" />
          </mxGeometry>
        </mxCell>
        <mxCell id="ik4w4f4R3jZXHW3xL0bT-15" value="" style="rhombus;whiteSpace=wrap;html=1;" vertex="1" parent="ik4w4f4R3jZXHW3xL0bT-1">
          <mxGeometry x="319" y="210" width="30" height="30" as="geometry" />
        </mxCell>
        <mxCell id="ik4w4f4R3jZXHW3xL0bT-34" style="edgeStyle=orthogonalEdgeStyle;rounded=0;orthogonalLoop=1;jettySize=auto;html=1;entryX=0.5;entryY=0;entryDx=0;entryDy=0;" edge="1" parent="ik4w4f4R3jZXHW3xL0bT-1" source="ik4w4f4R3jZXHW3xL0bT-20" target="ik4w4f4R3jZXHW3xL0bT-33">
          <mxGeometry relative="1" as="geometry" />
        </mxCell>
        <mxCell id="ik4w4f4R3jZXHW3xL0bT-20" value="Autenticação com a Microsoft" style="shape=process;whiteSpace=wrap;html=1;backgroundOutline=1;" vertex="1" parent="ik4w4f4R3jZXHW3xL0bT-1">
          <mxGeometry x="66" y="320" width="120" height="60" as="geometry" />
        </mxCell>
        <mxCell id="ik4w4f4R3jZXHW3xL0bT-30" style="edgeStyle=orthogonalEdgeStyle;rounded=0;orthogonalLoop=1;jettySize=auto;html=1;entryX=0;entryY=0.5;entryDx=0;entryDy=0;" edge="1" parent="ik4w4f4R3jZXHW3xL0bT-1" source="ik4w4f4R3jZXHW3xL0bT-24" target="ik4w4f4R3jZXHW3xL0bT-4">
          <mxGeometry relative="1" as="geometry" />
        </mxCell>
        <mxCell id="ik4w4f4R3jZXHW3xL0bT-24" value="Usuário" style="shape=umlActor;verticalLabelPosition=bottom;verticalAlign=top;html=1;outlineConnect=0;" vertex="1" parent="ik4w4f4R3jZXHW3xL0bT-1">
          <mxGeometry x="86" y="70" width="30" height="60" as="geometry" />
        </mxCell>
        <mxCell id="ik4w4f4R3jZXHW3xL0bT-31" value="Redirecionamento para a página inicial" style="shape=process;whiteSpace=wrap;html=1;backgroundOutline=1;" vertex="1" parent="ik4w4f4R3jZXHW3xL0bT-1">
          <mxGeometry x="476" y="310" width="144" height="60" as="geometry" />
        </mxCell>
        <mxCell id="ik4w4f4R3jZXHW3xL0bT-33" value="Redirecionamento para a página inicial" style="shape=process;whiteSpace=wrap;html=1;backgroundOutline=1;" vertex="1" parent="ik4w4f4R3jZXHW3xL0bT-1">
          <mxGeometry x="54" y="495" width="144" height="60" as="geometry" />
        </mxCell>
      </root>
    </mxGraphModel>
  </diagram>
</mxfile>
